<svg width="112" height="24" viewBox="0 0 112 24" fill="none" xmlns="http://www.w3.org/2000/svg">
<g clip-path="url(#clip0_299_21187)">
<path d="M12.8247 23.1712C9.99795 23.1712 7.78071 22.2174 6.17195 20.3089C4.56318 18.4013 3.75781 15.631 3.75781 11.9999C3.75781 10.1844 3.96361 8.5855 4.37718 7.20331C4.78976 5.82112 5.38735 4.65561 6.17195 3.70678C6.95555 2.75794 7.90933 2.04063 9.03428 1.55582C10.1582 1.07102 11.4217 0.828613 12.8247 0.828613C14.7016 0.828613 16.2747 1.23724 17.5441 2.05448C18.8125 2.87172 19.8078 4.08275 20.5301 5.68755L17.5906 7.29632C17.2196 6.26536 16.6467 5.44515 15.873 4.83568C15.0993 4.2272 14.0832 3.92247 12.8247 3.92247C11.1536 3.92247 9.84361 4.49236 8.89477 5.63116C7.94594 6.76996 7.47103 8.34409 7.47103 10.3526V13.6453C7.47103 15.6548 7.94495 17.2279 8.89477 18.3677C9.84361 19.5065 11.1536 20.0754 12.8247 20.0754C14.1247 20.0754 15.1814 19.74 15.9967 19.0702C16.811 18.4003 17.4145 17.5386 17.8073 16.4859L20.6231 18.1876C19.9009 19.7519 18.8907 20.9738 17.5906 21.8524C16.2905 22.7309 14.7025 23.1702 12.8247 23.1702V23.1712Z" fill="black"/>
<path d="M26.0903 22.7993H22.5938V1.20068H31.908C33.8472 1.20068 35.3738 1.78344 36.4879 2.94895C37.6019 4.11446 38.159 5.69849 38.159 7.69906C38.159 9.24648 37.8028 10.5307 37.0914 11.5518C36.38 12.5728 35.3323 13.2902 33.9501 13.7027L38.623 22.8003H34.7238L30.3912 14.0738H26.0903V22.8003V22.7993ZM31.6606 11.1333C32.5471 11.1333 33.2387 10.9027 33.7344 10.4407C34.2291 9.97863 34.4774 9.31573 34.4774 8.45298V6.97482C34.4774 6.11206 34.2301 5.45015 33.7344 4.9881C33.2397 4.52605 32.5481 4.29453 31.6606 4.29453H26.0903V11.1333H31.6606Z" fill="black"/>
<path d="M58.7417 22.7993V1.20068H68.0252C70.0258 1.20068 71.5732 1.78839 72.6665 2.96478C73.7598 4.14118 74.3069 5.71927 74.3069 7.69906C74.3069 9.67885 73.7598 11.2579 72.6665 12.4333C71.5732 13.6087 70.0258 14.1974 68.0252 14.1974H62.2382V22.8003H58.7417V22.7993ZM62.2382 11.1026H67.8085C68.6951 11.1026 69.3866 10.873 69.8823 10.413C70.377 9.95291 70.6254 9.29397 70.6254 8.43517V6.96294C70.6254 6.10415 70.378 5.44521 69.8823 4.98514C69.3876 4.52507 68.696 4.29552 67.8085 4.29552H62.2382V11.1036V11.1026Z" fill="black"/>
<path d="M84.2872 4.29455V22.7993H80.7906V4.29455H74.5356V1.19971H90.5421V4.29455H84.2872Z" fill="black"/>
<path d="M99.1218 23.1712C97.7188 23.1712 96.4455 22.9288 95.2998 22.444C94.155 21.9592 93.1745 21.2478 92.3603 20.3089C91.545 19.3709 90.9157 18.2044 90.4725 16.8123C90.0283 15.4202 89.8076 13.8164 89.8076 12.0009C89.8076 10.1853 90.0292 8.58152 90.4725 7.18944C90.9157 5.79735 91.545 4.63184 92.3603 3.6929C93.1745 2.75495 94.155 2.04258 95.2998 1.55778C96.4445 1.07297 97.7179 0.830566 99.1218 0.830566C100.526 0.830566 101.798 1.07297 102.944 1.55778C104.089 2.04258 105.068 2.75495 105.883 3.6929C106.698 4.63184 107.327 5.79735 107.771 7.18944C108.214 8.58152 108.436 10.1863 108.436 12.0009C108.436 13.8154 108.214 15.4202 107.771 16.8123C107.327 18.2044 106.699 19.3709 105.883 20.3089C105.068 21.2478 104.089 21.9592 102.944 22.444C101.799 22.9288 100.525 23.1712 99.1218 23.1712ZM99.1218 20.0764C99.947 20.0764 100.705 19.9319 101.396 19.642C102.087 19.3521 102.676 18.9326 103.161 18.3835C103.645 17.8344 104.021 17.1665 104.29 16.38C104.559 15.5924 104.693 14.7029 104.693 13.7086V10.2912C104.693 9.29785 104.559 8.40739 104.29 7.62081C104.022 6.83325 103.645 6.16541 103.161 5.61728C102.676 5.06816 102.088 4.64965 101.396 4.35876C100.705 4.06887 99.947 3.92343 99.1218 3.92343C98.2967 3.92343 97.5131 4.06887 96.8323 4.35876C96.1516 4.64866 95.5689 5.06816 95.0841 5.61728C94.5993 6.1664 94.2223 6.83424 93.9542 7.62081C93.6861 8.40838 93.5515 9.29785 93.5515 10.2912V13.7086C93.5515 14.7029 93.6851 15.5924 93.9542 16.38C94.2223 17.1675 94.5983 17.8344 95.0841 18.3835C95.5689 18.9326 96.1516 19.3511 96.8323 19.642C97.5131 19.9319 98.2759 20.0764 99.1218 20.0764Z" fill="black"/>
<path d="M45.8555 1.20068H42.3115V22.8003H45.8555V1.20068Z" fill="black"/>
<path d="M54.2745 1.20068H50.7305V22.8003H54.2745V1.20068Z" fill="black"/>
<path d="M0.0258789 9V10.9825V15H111.974V10.9825V9H0.0258789Z" fill="#604FED"/>
</g>
<defs>
<clipPath id="clip0_299_21187">
<rect width="112" height="23" fill="white" transform="translate(0 0.5)"/>
</clipPath>
</defs>
</svg>
