<svg id="Layer_1" xmlns="http://www.w3.org/2000/svg" width="109" height="28" viewBox="0 0 109 28"><style>.st0{fill-rule:evenodd;clip-rule:evenodd;fill:#84f4f8}</style><path class="st0" d="M38.8 10.2c-.2-2.5-3-5.1-7.5-5.1S23 7.9 23 13.2c0 4.6 3.5 7.8 8.3 7.8 3.7 0 7-1.8 7.7-5.7h-1.3c-.7 3.1-3.5 4.5-6.4 4.5-5.3 0-7-4.2-7-6.6 0-3.5 2.3-6.9 7-6.9 3.5 0 6.1 2.1 6.2 4h1.3v-.1zM42 20.4h1.3v-8.1c0-3 1.9-6 5.7-6 .8 0 1.2.1 1.5.2V5.3c-.4-.1-.7-.2-1.1-.2-2.9 0-5.1 1.4-6.1 4h-.1V5.6H42v14.8zm11 0h1.3V5.6H53v14.8zM53 3h1.3V0H53v3zm5.7 17.4H60V5.6h-1.3v14.8zm0-17.4H60V0h-1.3v3zm5.2 25V5.6h1.3v3.3h.1c.6-1.9 2.7-3.8 6.5-3.8 5.2 0 7.8 3.7 7.8 7.9 0 4.7-3.4 7.9-7.8 7.9-3.6 0-5.6-2-6.5-3.6h-.1V28h-1.3zm8-21.7c-5.5 0-6.9 4-6.9 6.6 0 5.2 3.7 6.9 6.7 6.9 3.4 0 6.5-2.2 6.5-6.7.1-4.3-2.7-6.8-6.3-6.8zm12.2-.7h-3.3v1.2h3.3v10c0 2.8.5 4 3.6 4 .7 0 1.5 0 2.2-.2v-1.2c-.6.1-1.2.2-1.8.2-1.6 0-2.7-.3-2.7-2.1V6.7h4.4V5.6h-4.4V1h-1.3v4.6zm8.8 7.4c0 3.4 2.3 6.7 7 6.7s7-3.3 7-6.7c0-3.4-2.3-6.7-7-6.7s-7 3.3-7 6.7zm-1.4 0c0-4.2 3-7.9 8.3-7.9 5.2 0 8.3 3.7 8.3 7.9s-3 7.9-8.3 7.9c-5.2 0-8.3-3.7-8.3-7.9zM15 17.8c0 1.2-1 2.2-2.2 2.2H3.2C2 20 1 19 1 17.8v-7.6C1 9 2 8 3.2 8h9.6C14 8 15 9 15 10.2v7.6zM4 4.8C4 2.7 5.9 1 8 1s4 1.7 4 3.8V7H4V4.8zM13 7V4.8C13 2.1 10.7 0 8 0S3 2.1 3 4.8V7c-1.8 0-3 1.4-3 3.2v7.6C0 19.6 1.4 21 3.2 21h9.6c1.8 0 3.2-1.4 3.2-3.2v-7.6C16 8.4 14.7 7 13 7z"/><path class="st0" d="M8 16c-.6 0-1-.4-1-1v-2.1c0-.5.4-.9 1-.9s1 .4 1 .9V15c0 .6-.4 1-1 1"/></svg>